<svg id="icons" enable-background="new 0 0 64 64" height="512" viewBox="0 0 64 64" width="512" xmlns="http://www.w3.org/2000/svg"><path d="m36.491 31.008-18 17.99h-8.49v-8.48l9.51-9.52h.01 16.96z" fill="#ffce54"/><path d="m55.951 3.049c2.73 2.74 2.73 7.17 0 9.9l-13.16 13.148-9.89-9.889 13.149-13.15v-.01c2.731-2.73 7.161-2.73 9.901.001z" fill="#4a89dc"/><path d="m30.771 19.738 8.49 8.491-2.77 2.779-.01-.01h-16.96z" fill="#e6e9ed"/><path d="m42.791 28.928c-.78.781-2.04.781-2.819 0l-.711-.699-8.489-8.49-.7-.699c-.78-.781-.78-2.051 0-2.83.78-.781 2.05-.781 2.83 0l9.89 9.889c.779.79.779 2.049-.001 2.829z" fill="#5d9cec"/><path d="m14.001 58.998c0 2.211-1.79 4-4 4s-4-1.789-4-4c0-2.209 4-6 4-6s4 3.791 4 6z" fill="#ffce54"/></svg>